<?xml version="1.0" encoding="UTF-8"?>
<svg xmlns="http://www.w3.org/2000/svg" xmlns:xlink="http://www.w3.org/1999/xlink" width="20pt" height="20pt" viewBox="0 0 20 20" version="1.1">
<g id="surface1" >
<path style=" stroke:none;fill-rule:nonzero;fill:rgb(89.019608%,91.372549%,92.941176%);fill-opacity:1;" d="M 14.140625 0 L 5.859375 0 C 2.628906 0 0 2.628906 0 5.859375 L 0 14.140625 C 0 17.371094 2.628906 20 5.859375 20 L 14.140625 20 C 17.371094 20 20 17.371094 20 14.140625 L 20 5.859375 C 20 2.628906 17.371094 0 14.140625 0 Z M 19.21875 14.140625 C 19.21875 16.941406 16.941406 19.21875 14.140625 19.21875 L 5.859375 19.21875 C 3.058594 19.21875 0.78125 16.941406 0.78125 14.140625 L 0.78125 5.859375 C 0.78125 3.058594 3.058594 0.78125 5.859375 0.78125 L 14.140625 0.78125 C 16.941406 0.78125 19.21875 3.058594 19.21875 5.859375 Z M 19.21875 14.140625 "/>
<path style=" stroke:none;fill-rule:nonzero;fill:rgb(89.019608%,91.372549%,92.941176%);fill-opacity:1;" d="M 14.140625 1.71875 L 5.859375 1.71875 C 3.578125 1.71875 1.71875 3.578125 1.71875 5.859375 L 1.71875 14.140625 C 1.71875 16.421875 3.578125 18.28125 5.859375 18.28125 L 8.242188 18.28125 C 8.457031 18.28125 8.632812 18.105469 8.632812 17.890625 C 8.632812 17.675781 8.457031 17.5 8.242188 17.5 L 5.859375 17.5 C 4.007812 17.5 2.5 15.992188 2.5 14.140625 L 2.5 5.859375 C 2.5 4.007812 4.007812 2.5 5.859375 2.5 L 14.140625 2.5 C 15.992188 2.5 17.5 4.007812 17.5 5.859375 L 17.5 14.140625 C 17.5 15.992188 15.992188 17.5 14.140625 17.5 L 11.785156 17.5 C 11.566406 17.5 11.394531 17.675781 11.394531 17.890625 C 11.394531 18.105469 11.566406 18.28125 11.785156 18.28125 L 14.140625 18.28125 C 16.421875 18.28125 18.28125 16.421875 18.28125 14.140625 L 18.28125 5.859375 C 18.28125 3.578125 16.421875 1.71875 14.140625 1.71875 Z M 14.140625 1.71875 "/>
<path style=" stroke:none;fill-rule:nonzero;fill:rgb(89.019608%,91.372549%,92.941176%);fill-opacity:1;" d="M 10.277344 17.613281 C 10.203125 17.542969 10.101562 17.5 10 17.5 C 9.898438 17.5 9.796875 17.542969 9.722656 17.613281 C 9.652344 17.6875 9.609375 17.789062 9.609375 17.890625 C 9.609375 17.992188 9.652344 18.09375 9.722656 18.167969 C 9.796875 18.238281 9.898438 18.28125 10 18.28125 C 10.101562 18.28125 10.203125 18.238281 10.277344 18.167969 C 10.347656 18.09375 10.390625 17.992188 10.390625 17.890625 C 10.390625 17.789062 10.347656 17.6875 10.277344 17.613281 Z M 10.277344 17.613281 "/>
<path style=" stroke:none;fill-rule:nonzero;fill:rgb(89.019608%,91.372549%,92.941176%);fill-opacity:1;" d="M 6.867188 6.082031 C 6.722656 5.925781 6.472656 5.917969 6.316406 6.0625 L 6.300781 6.082031 C 6.140625 6.230469 6.136719 6.476562 6.28125 6.632812 C 6.359375 6.714844 6.464844 6.753906 6.566406 6.753906 C 6.664062 6.753906 6.757812 6.71875 6.835938 6.648438 L 6.851562 6.632812 C 7.007812 6.488281 7.015625 6.238281 6.867188 6.082031 Z M 6.867188 6.082031 "/>
<path style=" stroke:none;fill-rule:nonzero;fill:rgb(89.019608%,91.372549%,92.941176%);fill-opacity:1;" d="M 10 4.609375 C 9.140625 4.609375 8.289062 4.816406 7.53125 5.207031 C 7.339844 5.304688 7.265625 5.542969 7.363281 5.734375 C 7.460938 5.925781 7.695312 6 7.890625 5.902344 C 8.546875 5.5625 9.253906 5.390625 10 5.390625 C 12.542969 5.390625 14.609375 7.457031 14.609375 10 C 14.609375 12.542969 12.542969 14.609375 10 14.609375 C 7.457031 14.609375 5.390625 12.542969 5.390625 10 C 5.390625 9.203125 5.597656 8.417969 5.988281 7.726562 C 6.09375 7.539062 6.03125 7.300781 5.84375 7.195312 C 5.65625 7.089844 5.414062 7.152344 5.308594 7.339844 C 4.851562 8.148438 4.609375 9.066406 4.609375 10 C 4.609375 12.972656 7.027344 15.390625 10 15.390625 C 12.972656 15.390625 15.390625 12.972656 15.390625 10 C 15.390625 7.027344 12.972656 4.609375 10 4.609375 Z M 10 4.609375 "/>
<path style=" stroke:none;fill-rule:nonzero;fill:rgb(89.019608%,91.372549%,92.941176%);fill-opacity:1;" d="M 10 6.484375 C 8.0625 6.484375 6.484375 8.0625 6.484375 10 C 6.484375 11.9375 8.0625 13.515625 10 13.515625 C 11.9375 13.515625 13.515625 11.9375 13.515625 10 C 13.515625 8.0625 11.9375 6.484375 10 6.484375 Z M 10 12.734375 C 8.492188 12.734375 7.265625 11.507812 7.265625 10 C 7.265625 8.492188 8.492188 7.265625 10 7.265625 C 11.507812 7.265625 12.734375 8.492188 12.734375 10 C 12.734375 11.507812 11.507812 12.734375 10 12.734375 Z M 10 12.734375 "/>
<path style=" stroke:none;fill-rule:nonzero;fill:rgb(89.019608%,91.372549%,92.941176%);fill-opacity:1;" d="M 15.125 3.390625 C 14.308594 3.390625 13.640625 4.054688 13.640625 4.875 C 13.640625 5.691406 14.308594 6.359375 15.125 6.359375 C 15.945312 6.359375 16.609375 5.691406 16.609375 4.875 C 16.609375 4.054688 15.945312 3.390625 15.125 3.390625 Z M 15.125 5.578125 C 14.738281 5.578125 14.421875 5.261719 14.421875 4.875 C 14.421875 4.484375 14.738281 4.171875 15.125 4.171875 C 15.515625 4.171875 15.828125 4.484375 15.828125 4.875 C 15.828125 5.261719 15.515625 5.578125 15.125 5.578125 Z M 15.125 5.578125  "/>
</g>
</svg>
