<?xml version="1.0" encoding="UTF-8"?>
<svg xmlns="http://www.w3.org/2000/svg" xmlns:xlink="http://www.w3.org/1999/xlink" width="8pt" height="8pt" viewBox="0 0 8 8" version="1.1">
<g id="surface1">
<path style=" stroke:none;fill-rule:nonzero;fill:rgb(0%,0%,0%);fill-opacity:1;" d="M 7.296875 1.257812 L 0.703125 1.257812 C 0.316406 1.257812 0 1.574219 0 1.960938 L 0 6.039062 C 0 6.425781 0.316406 6.742188 0.703125 6.742188 L 7.296875 6.742188 C 7.683594 6.742188 8 6.425781 8 6.039062 L 8 1.960938 C 8 1.574219 7.683594 1.257812 7.296875 1.257812 Z M 7.207031 1.726562 L 7.109375 1.804688 L 4.277344 4.164062 C 4.117188 4.300781 3.882812 4.300781 3.722656 4.164062 L 0.890625 1.804688 L 0.792969 1.726562 Z M 0.46875 2.066406 L 2.777344 3.988281 L 0.46875 5.523438 Z M 7.296875 6.273438 L 0.703125 6.273438 C 0.589844 6.273438 0.496094 6.191406 0.472656 6.085938 L 3.152344 4.300781 L 3.421875 4.523438 C 3.589844 4.664062 3.792969 4.734375 4 4.734375 C 4.207031 4.734375 4.410156 4.664062 4.578125 4.523438 L 4.847656 4.300781 L 7.527344 6.085938 C 7.503906 6.191406 7.410156 6.273438 7.296875 6.273438 Z M 7.53125 5.523438 L 5.222656 3.988281 L 7.53125 2.066406 Z M 7.53125 5.523438 "/>
</g>
</svg>
