<?xml version="1.0" encoding="UTF-8"?>
<svg xmlns="http://www.w3.org/2000/svg" xmlns:xlink="http://www.w3.org/1999/xlink" width="20pt" height="20pt" viewBox="0 0 20 20" version="1.1">
<g id="surface1">
<path style=" stroke:none;fill-rule:nonzero;fill:rgb(89.019608%,91.372549%,92.941176%);fill-opacity:1;" d="M 10.453125 5.910156 C 10.390625 5.859375 10.308594 5.835938 10.226562 5.851562 L 5.796875 6.683594 C 5.664062 6.707031 5.570312 6.820312 5.570312 6.953125 L 5.570312 13.046875 C 5.570312 13.179688 5.664062 13.292969 5.796875 13.316406 L 10.226562 14.148438 C 10.242188 14.152344 10.261719 14.152344 10.277344 14.152344 C 10.339844 14.152344 10.402344 14.132812 10.453125 14.089844 C 10.515625 14.039062 10.554688 13.957031 10.554688 13.875 L 10.554688 6.125 C 10.554688 6.039062 10.515625 5.960938 10.453125 5.910156 Z M 10 13.542969 L 6.125 12.816406 L 6.125 7.183594 L 10 6.457031 Z M 10 13.542969 "/>
<path style=" stroke:none;fill-rule:nonzero;fill:rgb(89.019608%,91.372549%,92.941176%);fill-opacity:1;" d="M 8.0625 8.617188 C 7.296875 8.617188 6.675781 9.359375 6.675781 10.277344 C 6.675781 11.191406 7.296875 11.9375 8.0625 11.9375 C 8.824219 11.9375 9.445312 11.191406 9.445312 10.277344 C 9.445312 9.359375 8.824219 8.617188 8.0625 8.617188 Z M 8.0625 11.382812 C 7.605469 11.382812 7.230469 10.886719 7.230469 10.277344 C 7.230469 9.664062 7.605469 9.167969 8.0625 9.167969 C 8.519531 9.167969 8.890625 9.664062 8.890625 10.277344 C 8.890625 10.886719 8.519531 11.382812 8.0625 11.382812 Z M 8.0625 11.382812 "/>
<path style=" stroke:none;fill-rule:nonzero;fill:rgb(89.019608%,91.372549%,92.941176%);fill-opacity:1;" d="M 14.152344 7.507812 L 10.277344 7.507812 C 10.125 7.507812 10 7.632812 10 7.785156 C 10 7.9375 10.125 8.0625 10.277344 8.0625 L 13.875 8.0625 L 13.875 11.9375 L 10.277344 11.9375 C 10.125 11.9375 10 12.0625 10 12.214844 C 10 12.367188 10.125 12.492188 10.277344 12.492188 L 14.152344 12.492188 C 14.304688 12.492188 14.429688 12.367188 14.429688 12.214844 L 14.429688 7.785156 C 14.429688 7.632812 14.304688 7.507812 14.152344 7.507812 Z M 14.152344 7.507812 "/>
<path style=" stroke:none;fill-rule:nonzero;fill:rgb(89.019608%,91.372549%,92.941176%);fill-opacity:1;" d="M 14.371094 7.613281 C 14.277344 7.492188 14.101562 7.472656 13.984375 7.566406 L 11.644531 9.382812 L 10.425781 8.609375 C 10.296875 8.527344 10.125 8.566406 10.042969 8.695312 C 9.960938 8.824219 10 8.992188 10.128906 9.074219 L 11.511719 9.957031 C 11.558594 9.984375 11.609375 10 11.660156 10 C 11.722656 10 11.78125 9.980469 11.832031 9.941406 L 14.324219 8.003906 C 14.445312 7.910156 14.464844 7.734375 14.371094 7.613281 Z M 14.371094 7.613281 "/>
</g>
</svg>
