<?xml version="1.0" encoding="UTF-8"?>
<svg xmlns="http://www.w3.org/2000/svg" xmlns:xlink="http://www.w3.org/1999/xlink" width="11pt" height="11pt" viewBox="0 0 11 11" version="1.1">
<g id="surface1">
<path style=" stroke:none;fill-rule:nonzero;fill:rgb(89.019608%,91.372549%,92.941176%);fill-opacity:1;" d="M 5.75 3.25 C 5.714844 3.222656 5.667969 3.210938 5.625 3.21875 L 3.1875 3.675781 C 3.117188 3.6875 3.0625 3.75 3.0625 3.824219 L 3.0625 7.175781 C 3.0625 7.25 3.117188 7.3125 3.1875 7.324219 L 5.625 7.78125 C 5.632812 7.785156 5.644531 7.785156 5.652344 7.785156 C 5.6875 7.785156 5.722656 7.773438 5.75 7.75 C 5.785156 7.71875 5.804688 7.675781 5.804688 7.632812 L 5.804688 3.367188 C 5.804688 3.324219 5.785156 3.28125 5.75 3.25 Z M 5.5 7.449219 L 3.367188 7.046875 L 3.367188 3.949219 L 5.5 3.550781 Z M 5.5 7.449219 "/>
<path style=" stroke:none;fill-rule:nonzero;fill:rgb(89.019608%,91.372549%,92.941176%);fill-opacity:1;" d="M 4.433594 4.738281 C 4.015625 4.738281 3.671875 5.148438 3.671875 5.652344 C 3.671875 6.15625 4.015625 6.566406 4.433594 6.566406 C 4.855469 6.566406 5.195312 6.15625 5.195312 5.652344 C 5.195312 5.148438 4.855469 4.738281 4.433594 4.738281 Z M 4.433594 6.261719 C 4.183594 6.261719 3.976562 5.988281 3.976562 5.652344 C 3.976562 5.316406 4.183594 5.042969 4.433594 5.042969 C 4.6875 5.042969 4.890625 5.316406 4.890625 5.652344 C 4.890625 5.988281 4.6875 6.261719 4.433594 6.261719 Z M 4.433594 6.261719 "/>
<path style=" stroke:none;fill-rule:nonzero;fill:rgb(89.019608%,91.372549%,92.941176%);fill-opacity:1;" d="M 7.785156 4.128906 L 5.652344 4.128906 C 5.566406 4.128906 5.5 4.199219 5.5 4.28125 C 5.5 4.367188 5.566406 4.433594 5.652344 4.433594 L 7.632812 4.433594 L 7.632812 6.566406 L 5.652344 6.566406 C 5.566406 6.566406 5.5 6.632812 5.5 6.71875 C 5.5 6.800781 5.566406 6.871094 5.652344 6.871094 L 7.785156 6.871094 C 7.867188 6.871094 7.9375 6.800781 7.9375 6.71875 L 7.9375 4.28125 C 7.9375 4.199219 7.867188 4.128906 7.785156 4.128906 Z M 7.785156 4.128906 "/>
<path style=" stroke:none;fill-rule:nonzero;fill:rgb(89.019608%,91.372549%,92.941176%);fill-opacity:1;" d="M 7.90625 4.1875 C 7.851562 4.121094 7.757812 4.109375 7.691406 4.160156 L 6.40625 5.160156 L 5.734375 4.734375 C 5.664062 4.691406 5.570312 4.710938 5.523438 4.78125 C 5.480469 4.851562 5.5 4.945312 5.570312 4.992188 L 6.332031 5.476562 C 6.355469 5.492188 6.386719 5.5 6.414062 5.5 C 6.445312 5.5 6.480469 5.488281 6.507812 5.46875 L 7.878906 4.402344 C 7.945312 4.351562 7.957031 4.253906 7.90625 4.1875 Z M 7.90625 4.1875 "/>
</g>
</svg>
